#N canvas 63 88 1065 602 12;
#X obj 101 287 +~ 2;
#X obj 101 262 osc~ 0.2;
#X obj 101 349 osc~;
#X obj 101 317 *~ 50;
#X obj 167 291 +~ 2;
#X obj 167 346 osc~;
#X obj 230 288 +~ 2;
#X obj 230 340 osc~;
#X obj 167 321 *~ 100;
#X obj 288 278 +~ 2;
#X obj 288 330 cos~;
#X obj 288 244 osc~ 0.5;
#X obj 303 169 +~ 2;
#X obj 303 142 osc~ 0.5;
#X obj 288 219 *~;
#X obj 303 193 *~ 5;
#X obj 230 318 *~ 200;
#X obj 288 308 *~ 400;
#X obj 101 375 *~ 0.5;
#X obj 153 415 *~ 0.5;
#X obj 163 456 dac~;
#X obj 167 369 *~ 0.5;
#X obj 288 367 *~ 0.3;
#X obj 417 134 float;
#X obj 475 137 + 1;
#X floatatom 412 159 5 0 0 0 - - - 0;
#X obj 412 181 mod 4;
#X obj 411 204 select 0 1 2 3;
#X obj 416 274 mtof;
#X obj 416 302 osc~;
#X obj 417 238 f 61;
#X obj 456 239 f 53;
#X obj 503 235 f 68;
#X obj 167 257 osc~ 0.3;
#X obj 230 254 osc~ 0.4;
#X obj 417 114 metro 300;
#X obj 545 233 66;
#X obj 230 367 *~ 0.2;
#X obj 416 336 *~ 0.3;
#X obj 417 92 loadbang;
#X connect 0 0 3 0;
#X connect 1 0 0 0;
#X connect 2 0 18 0;
#X connect 3 0 2 0;
#X connect 4 0 8 0;
#X connect 5 0 21 0;
#X connect 6 0 16 0;
#X connect 7 0 37 0;
#X connect 8 0 5 0;
#X connect 9 0 17 0;
#X connect 10 0 22 0;
#X connect 11 0 9 0;
#X connect 12 0 15 0;
#X connect 13 0 12 0;
#X connect 14 0 11 0;
#X connect 15 0 14 1;
#X connect 16 0 7 0;
#X connect 17 0 10 0;
#X connect 18 0 19 0;
#X connect 19 0 20 0;
#X connect 19 0 20 1;
#X connect 21 0 19 0;
#X connect 22 0 19 0;
#X connect 23 0 24 0;
#X connect 23 0 25 0;
#X connect 24 0 23 1;
#X connect 25 0 26 0;
#X connect 26 0 27 0;
#X connect 27 0 30 0;
#X connect 27 1 31 0;
#X connect 27 2 32 0;
#X connect 27 3 36 0;
#X connect 28 0 29 0;
#X connect 29 0 38 0;
#X connect 30 0 28 0;
#X connect 31 0 28 0;
#X connect 32 0 28 0;
#X connect 33 0 4 0;
#X connect 34 0 6 0;
#X connect 35 0 23 0;
#X connect 36 0 28 0;
#X connect 37 0 19 0;
#X connect 38 0 20 0;
#X connect 38 0 20 1;
#X connect 39 0 35 0;
