#N canvas 0 0 1522 762 10;
#X declare -lib gem;
#X obj 76 263 declare -lib gem;
#X obj 340 600 circle;
#X obj 346 262 part_head;
#X obj 346 287 part_size 3;
#X obj 346 312 part_source 50;
#X obj 346 337 part_killold 10;
#X obj 346 359 part_render;
#X obj 346 237 gemhead;
#X obj 281 555 loadbang;
#X msg 281 580 draw line;
#X msg 406 236 speed 5;
#X obj 461 430 vsl 15 50 0 1 0 0 empty empty empty 0 -9 0 10 #fc0400
#000000 #000000 967 1;
#X obj 493 431 vsl 15 50 0 1 0 0 empty empty empty 0 -9 0 10 #00fc04
#000000 #000000 1974 1;
#X obj 521 431 vsl 15 50 0 1 0 0 empty empty empty 0 -9 0 10 #0400fc
#000000 #000000 3932 1;
#X obj 340 531 colorRGB;
#X obj 450 400 r R;
#X obj 490 390 r G;
#X obj 530 380 r B;
#X obj 846 447 int;
#X floatatom 846 470 3 0 0 0 - - -, f 3;
#X floatatom 791 470 3 0 0 0 - - -, f 3;
#X floatatom 681 437 4 0 0 0 - - -, f 4;
#X obj 725 502 moses 50, f 9;
#X obj 681 417 fiddle~ 1024 1 29 3, f 32;
#X obj 953 456 unpack;
#X floatatom 953 484 3 0 0 0 - - -, f 3;
#X floatatom 979 480 0 0 0 0 - - -;
#X obj 953 417 route 1 2 3 4;
#X obj 1045 457 unpack;
#X floatatom 1045 482 0 0 0 0 - - -;
#X floatatom 1098 481 0 0 0 0 - - -;
#X obj 1154 455 unpack;
#X floatatom 1154 483 0 0 0 0 - - -;
#X floatatom 1204 482 0 0 0 0 - - -;
#X floatatom 953 535 5 0 0 0 - - -, f 5;
#X floatatom 1045 533 5 0 0 0 - - -, f 5;
#X floatatom 1154 534 5 0 0 0 - - -, f 5;
#X obj 649 532 s fpitch;
#X obj 950 590 s R;
#X obj 1050 590 s G;
#X obj 1150 590 s B;
#X obj 830 502 moses 50, f 9;
#X obj 706 532 s mospL;
#X obj 765 532 s mospM;
#X obj 830 532 s mosaL;
#X obj 890 532 s mosaM;
#X text 490 360 RGB;
#X obj 1154 509 / 100;
#X obj 206 224 loadbang;
#X msg 206 253 \; pd dsp 1;
#X obj 173 446 gemwin;
#X msg 136 408 create \, 1;
#X msg 240 400 0 \, destroy;
#X floatatom 681 486 5 0 0 0 - - -, f 5;
#X obj 134 351 loadbang;
#X obj 390 430 vsl 15 50 0 10 0 0 empty empty empty 0 -9 0 10 #fcfcfc
#000000 #000000 1795 1;
#X obj 386 400 r fpitch;
#X obj 791 447 int;
#X obj 684 205 +~ 2;
#X obj 684 180 osc~ 0.2;
#X obj 684 267 osc~;
#X obj 684 235 *~ 50;
#X obj 750 209 +~ 2;
#X obj 750 175 osc~ 0.2;
#X obj 750 264 osc~;
#X obj 813 206 +~ 2;
#X obj 813 172 osc~ 0.2;
#X obj 813 258 osc~;
#X obj 750 239 *~ 100;
#X obj 871 196 +~ 2;
#X obj 871 248 cos~;
#X obj 871 162 osc~ 0.5;
#X obj 886 87 +~ 2;
#X obj 886 60 osc~ 0.5;
#X obj 871 137 *~;
#X obj 886 111 *~ 5;
#X obj 813 236 *~ 200;
#X obj 871 226 *~ 400;
#X obj 684 293 *~ 0.5;
#X obj 736 333 *~ 0.5;
#X obj 746 374 dac~;
#X obj 750 287 *~ 0.5;
#X obj 813 285 *~ 0.3;
#X obj 871 285 *~ 0.3;
#X obj 953 510 / 100;
#X obj 1045 508 / 100;
#X msg 190 353 dimen 640 480;
#X obj 290 170 loadbang;
#X obj 290 195 s lb;
#X obj 200 323 r lb;
#X obj 460 195 r fpitch;
#X obj 460 220 vsl 15 50 0 10 0 0 empty empty empty 0 -9 0 10 #fcfcfc
#000000 #000000 1795 1;
#X obj 681 461 / 15;
#X text 240 380 Destroy visuals;
#X text 123 385 Create visuals;
#X obj 1045 559 / 5;
#X obj 953 561 / 5;
#X obj 1154 560 / 5;
#X obj 1000 52 float;
#X obj 1058 55 + 1;
#X floatatom 995 77 5 0 0 0 - - -, f 5;
#X obj 995 99 mod 4;
#X obj 994 122 select 0 1 2 3;
#X obj 999 192 mtof;
#X obj 999 220 osc~;
#X obj 999 254 *~ 0.5;
#X obj 1000 156 f 61;
#X obj 1039 157 f 53;
#X obj 1086 153 f 68;
#X obj 1128 151 f 45;
#X obj 1209 299 int;
#X floatatom 1209 322 3 0 0 0 - - -, f 3;
#X floatatom 1154 322 3 0 0 0 - - -, f 3;
#X floatatom 1044 289 4 0 0 0 - - -, f 4;
#X obj 1088 354 moses 50, f 9;
#X obj 1044 269 fiddle~ 1024 1 29 3, f 32;
#X obj 1316 308 unpack;
#X floatatom 1316 336 3 0 0 0 - - -, f 3;
#X floatatom 1342 332 0 0 0 0 - - -;
#X obj 1316 269 route 1 2 3 4;
#X obj 1408 309 unpack;
#X floatatom 1408 334 0 0 0 0 - - -;
#X floatatom 1461 333 0 0 0 0 - - -;
#X obj 1517 307 unpack;
#X floatatom 1517 335 0 0 0 0 - - -;
#X floatatom 1567 334 0 0 0 0 - - -;
#X floatatom 1316 387 5 0 0 0 - - -, f 5;
#X floatatom 1408 385 5 0 0 0 - - -, f 5;
#X floatatom 1517 386 5 0 0 0 - - -, f 5;
#X obj 1193 354 moses 50, f 9;
#X obj 1069 384 s mospL;
#X obj 1128 384 s mospM;
#X obj 1193 384 s mosaL;
#X obj 1253 384 s mosaM;
#X obj 1517 361 / 100;
#X floatatom 1044 338 5 0 0 0 - - -, f 5;
#X obj 1154 299 int;
#X obj 1316 362 / 100;
#X obj 1408 360 / 100;
#X obj 1044 313 / 15;
#X obj 1408 411 / 5;
#X obj 1316 413 / 5;
#X obj 1517 412 / 5;
#X obj 1300 450 s Rr;
#X obj 1390 470 s Gg;
#X obj 1520 440 s Bb;
#X obj 1000 10 r lb;
#X obj 1000 32 metro 200;
#X obj 1011 650 env~;
#X floatatom 1044 718 5 0 0 0 - - -, f 5;
#X obj 1044 694 / 1000;
#X obj 979 694 / 100;
#X floatatom 979 718 5 0 0 0 - - -, f 5;
#X obj 919 694 / 10;
#X floatatom 919 718 5 0 0 0 - - -, f 5;
#X obj 919 747 s env10;
#X obj 979 747 s env100;
#X obj 1044 747 s env1000;
#X obj 1096 291 s fbang;
#X obj 555 602 gemhead;
#X obj 555 763 part_killold;
#X floatatom 719 664 3 0 0 0 - - -, f 3;
#X floatatom 756 664 3 0 0 0 - - -, f 3;
#X floatatom 799 664 3 0 0 0 - - -, f 3;
#X floatatom 842 664 3 0 0 0 - - -, f 3;
#X obj 756 692 t b f;
#X obj 799 692 t b f;
#X obj 842 692 t b f;
#X obj 757 739 pack f f f f;
#X msg 470 941 draw points;
#X floatatom 640 656 3 0 0 0 - - -, f 3;
#X msg 640 682 speed \$1;
#X floatatom 615 627 2 0 0 0 - - -, f 2;
#X floatatom 595 627 2 0 0 0 - - -, f 2;
#X floatatom 575 627 2 0 0 0 - - -, f 2;
#X obj 555 733 part_velocity sphere;
#X floatatom 595 982 2 0 0 0 - - -, f 2;
#X obj 555 1007 sphere, f 12;
#X obj 470 910 loadbang;
#X obj 555 661 rotateXYZ;
#X floatatom 657 958 2 0 0 0 - - -, f 2;
#X obj 640 627 r env1000;
#X obj 842 631 r env1000;
#X obj 595 958 / 10;
#X obj 555 876 alpha;
#X text 576 578 Dots;
#X obj 555 705 part_head;
#X msg 564 846 auto \$1;
#X obj 564 822 tgl 15 0 empty empty empty 17 7 0 10 #fcfcfc #000000
#000000 1 1;
#X obj 564 798 loadbang;
#X obj 595 934 r mospM;
#X obj 657 934 r mosaM;
#X obj 615 602 r mosaM;
#X obj 555 910 part_render;
#X connect 2 0 3 0;
#X connect 3 0 4 0;
#X connect 4 0 5 0;
#X connect 5 0 6 0;
#X connect 6 0 14 0;
#X connect 7 0 2 0;
#X connect 8 0 9 0;
#X connect 9 0 1 0;
#X connect 10 0 2 0;
#X connect 11 0 14 1;
#X connect 12 0 14 2;
#X connect 13 0 14 3;
#X connect 14 0 1 0;
#X connect 15 0 11 0;
#X connect 16 0 12 0;
#X connect 17 0 13 0;
#X connect 18 0 19 0;
#X connect 19 0 41 0;
#X connect 20 0 22 0;
#X connect 21 0 92 0;
#X connect 22 0 42 0;
#X connect 22 1 43 0;
#X connect 23 0 21 0;
#X connect 23 2 57 0;
#X connect 23 3 18 0;
#X connect 23 4 27 0;
#X connect 24 0 25 0;
#X connect 24 1 26 0;
#X connect 25 0 84 0;
#X connect 27 0 24 0;
#X connect 27 1 28 0;
#X connect 27 2 31 0;
#X connect 28 0 29 0;
#X connect 28 1 30 0;
#X connect 29 0 85 0;
#X connect 31 0 32 0;
#X connect 31 1 33 0;
#X connect 32 0 47 0;
#X connect 34 0 96 0;
#X connect 35 0 95 0;
#X connect 36 0 97 0;
#X connect 41 0 44 0;
#X connect 41 1 45 0;
#X connect 47 0 36 0;
#X connect 48 0 49 0;
#X connect 51 0 50 0;
#X connect 52 0 50 0;
#X connect 53 0 37 0;
#X connect 54 0 51 0;
#X connect 56 0 55 0;
#X connect 57 0 20 0;
#X connect 58 0 61 0;
#X connect 59 0 58 0;
#X connect 60 0 78 0;
#X connect 61 0 60 0;
#X connect 62 0 68 0;
#X connect 63 0 62 0;
#X connect 64 0 81 0;
#X connect 65 0 76 0;
#X connect 66 0 65 0;
#X connect 67 0 82 0;
#X connect 68 0 64 0;
#X connect 69 0 77 0;
#X connect 70 0 83 0;
#X connect 71 0 69 0;
#X connect 72 0 75 0;
#X connect 73 0 72 0;
#X connect 74 0 71 0;
#X connect 75 0 74 1;
#X connect 76 0 67 0;
#X connect 77 0 70 0;
#X connect 78 0 79 0;
#X connect 79 0 23 0;
#X connect 79 0 80 0;
#X connect 79 0 80 1;
#X connect 81 0 79 0;
#X connect 82 0 79 0;
#X connect 83 0 79 0;
#X connect 84 0 34 0;
#X connect 85 0 35 0;
#X connect 86 0 50 0;
#X connect 87 0 88 0;
#X connect 89 0 86 0;
#X connect 90 0 91 0;
#X connect 91 0 3 1;
#X connect 92 0 53 0;
#X connect 95 0 39 0;
#X connect 96 0 38 0;
#X connect 97 0 40 0;
#X connect 98 0 99 0;
#X connect 98 0 100 0;
#X connect 99 0 98 1;
#X connect 100 0 101 0;
#X connect 101 0 102 0;
#X connect 102 0 106 0;
#X connect 102 1 107 0;
#X connect 102 2 108 0;
#X connect 102 3 109 0;
#X connect 103 0 104 0;
#X connect 104 0 105 0;
#X connect 105 0 115 0;
#X connect 105 0 148 0;
#X connect 105 0 80 0;
#X connect 105 0 80 1;
#X connect 106 0 103 0;
#X connect 107 0 103 0;
#X connect 108 0 103 0;
#X connect 109 0 103 0;
#X connect 110 0 111 0;
#X connect 111 0 129 0;
#X connect 112 0 114 0;
#X connect 113 0 139 0;
#X connect 114 0 130 0;
#X connect 114 1 131 0;
#X connect 115 0 113 0;
#X connect 115 1 158 0;
#X connect 115 2 136 0;
#X connect 115 3 110 0;
#X connect 115 4 119 0;
#X connect 116 0 117 0;
#X connect 116 1 118 0;
#X connect 117 0 137 0;
#X connect 119 0 116 0;
#X connect 119 1 120 0;
#X connect 119 2 123 0;
#X connect 120 0 121 0;
#X connect 120 1 122 0;
#X connect 121 0 138 0;
#X connect 123 0 124 0;
#X connect 123 1 125 0;
#X connect 124 0 134 0;
#X connect 126 0 141 0;
#X connect 127 0 140 0;
#X connect 128 0 142 0;
#X connect 129 0 132 0;
#X connect 129 1 133 0;
#X connect 134 0 128 0;
#X connect 136 0 112 0;
#X connect 137 0 126 0;
#X connect 138 0 127 0;
#X connect 139 0 135 0;
#X connect 140 0 144 0;
#X connect 141 0 143 0;
#X connect 142 0 145 0;
#X connect 146 0 147 0;
#X connect 147 0 98 0;
#X connect 148 0 150 0;
#X connect 148 0 151 0;
#X connect 148 0 153 0;
#X connect 149 0 157 0;
#X connect 150 0 149 0;
#X connect 151 0 152 0;
#X connect 152 0 156 0;
#X connect 153 0 154 0;
#X connect 154 0 155 0;
#X connect 159 0 179 0;
#X connect 160 0 184 0;
#X connect 161 0 168 0;
#X connect 162 0 165 0;
#X connect 163 0 166 0;
#X connect 164 0 167 0;
#X connect 165 0 168 0;
#X connect 165 1 168 1;
#X connect 166 0 168 0;
#X connect 166 1 168 2;
#X connect 167 0 168 0;
#X connect 167 1 168 3;
#X connect 168 0 175 2;
#X connect 169 0 177 0;
#X connect 170 0 171 0;
#X connect 171 0 186 0;
#X connect 172 0 179 3;
#X connect 173 0 179 2;
#X connect 174 0 179 1;
#X connect 175 0 160 0;
#X connect 176 0 177 1;
#X connect 178 0 169 0;
#X connect 179 0 186 0;
#X connect 180 0 177 2;
#X connect 181 0 170 0;
#X connect 182 0 164 0;
#X connect 183 0 176 0;
#X connect 184 0 193 0;
#X connect 186 0 175 0;
#X connect 187 0 184 0;
#X connect 188 0 187 0;
#X connect 189 0 188 0;
#X connect 190 0 183 0;
#X connect 191 0 180 0;
#X connect 192 0 172 0;
#X connect 193 0 177 0;
