#N canvas 0 25 1440 785 12;
#X obj 61 143 +~ 2;
#X obj 61 110 osc~ 0.2;
#X obj 62 209 osc~;
#X obj 61 174 *~ 50;
#X obj 139 168 +~ 2;
#X obj 139 136 osc~ 0.2;
#X obj 139 245 osc~;
#X obj 215 172 +~ 2;
#X obj 212 238 osc~;
#X obj 139 206 *~ 100;
#X obj 300 168 +~ 2;
#X obj 279 238 cos~;
#X obj 295 134 osc~ 0.5;
#X obj 455 71 +~ 2;
#X obj 450 37 osc~ 0.5;
#X obj 398 94 *~;
#X obj 452 101 *~ 5;
#X obj 297 198 *~ 400;
#X obj 621 123 metro 500;
#X obj 65 281 *~ 0.5;
#X obj 184 478 *~ 0.5;
#X obj 241 664 dac~;
#X obj 139 285 *~ 0.5;
#X obj 279 286 *~ 0.3;
#X obj 620 159 float;
#X obj 688 162 + 1;
#X floatatom 620 193 5 0 0 0 - - - 0;
#X obj 620 223 mod 4;
#X obj 640 299 select 0 1 2 3;
#X obj 626 476 mtof;
#X obj 614 525 osc~;
#X obj 621 583 *~ 0.5;
#X obj 605 63 loadbang;
#X floatatom 699 55 5 0 0 0 - - - 0;
#X obj 625 390 f 61;
#X obj 664 391 f 53;
#X obj 711 387 f 68;
#X obj 766 387 f 45;
#X obj 211 287 *~ 0.2;
#X obj 210 138 osc~ 0.1;
#X obj 212 202 *~ 150;
#X connect 0 0 3 0;
#X connect 1 0 0 0;
#X connect 2 0 19 0;
#X connect 3 0 2 0;
#X connect 4 0 9 0;
#X connect 5 0 4 0;
#X connect 6 0 22 0;
#X connect 7 0 40 0;
#X connect 8 0 38 0;
#X connect 9 0 6 0;
#X connect 10 0 17 0;
#X connect 11 0 23 0;
#X connect 12 0 10 0;
#X connect 13 0 16 0;
#X connect 14 0 13 0;
#X connect 15 0 12 0;
#X connect 16 0 15 1;
#X connect 17 0 11 0;
#X connect 18 0 24 0;
#X connect 19 0 20 0;
#X connect 20 0 21 0;
#X connect 20 0 21 1;
#X connect 22 0 20 0;
#X connect 23 0 20 0;
#X connect 24 0 25 0;
#X connect 24 0 26 0;
#X connect 25 0 24 1;
#X connect 26 0 27 0;
#X connect 27 0 28 0;
#X connect 28 0 34 0;
#X connect 28 1 35 0;
#X connect 28 2 36 0;
#X connect 28 3 37 0;
#X connect 29 0 30 0;
#X connect 30 0 31 0;
#X connect 31 0 21 0;
#X connect 31 0 21 1;
#X connect 32 0 18 0;
#X connect 33 0 18 1;
#X connect 34 0 29 0;
#X connect 35 0 29 0;
#X connect 36 0 29 0;
#X connect 37 0 29 0;
#X connect 38 0 20 0;
#X connect 39 0 7 0;
#X connect 40 0 8 0;
