#N canvas 661 203 582 447 12;
#X obj 62 350 dac~;
#X obj 152 244 hsl 128 15 0 1 0 0 empty empty empty -2 -8 0 10 #fcfcfc
#000000 #000000 0 1;
#X obj 65 281 *~;
#X floatatom 61 140 5 0 0 0 - - - 0;
#X obj 116 127 +~ 2;
#X obj 111 93 osc~ 0.2;
#X obj 62 209 osc~;
#X obj 113 157 *~ 50;
#X obj 24 16 vsl 15 128 0 1 0 0 empty empty empty 0 -9 0 10 #fcfcfc
#000000 #000000 0 1;
#X floatatom 412 80 5 0 0 0 - - - 0;
#X obj 547 75 +~ 2;
#X obj 542 41 osc~ 0.2;
#X obj 413 149 osc~;
#X obj 701 -44 vsl 15 128 0 1 0 0 empty empty empty 0 -9 0 10 #fcfcfc
#000000 #000000 0 1;
#X obj 544 105 *~ 80;
#X obj 457 218 hsl 128 15 0 1 0 0 empty empty empty -2 -8 0 10 #fcfcfc
#000000 #000000 0 1;
#X obj 370 255 *~;
#X connect 1 0 2 1;
#X connect 2 0 0 0;
#X connect 2 0 0 1;
#X connect 3 0 6 0;
#X connect 4 0 7 0;
#X connect 5 0 4 0;
#X connect 6 0 2 0;
#X connect 7 0 6 0;
#X connect 8 0 5 0;
#X connect 9 0 12 0;
#X connect 10 0 14 0;
#X connect 11 0 10 0;
#X connect 12 0 16 0;
#X connect 13 0 11 0;
#X connect 14 0 12 0;
#X connect 15 0 16 1;
#X connect 16 0 0 0;
#X connect 16 0 0 1;
