#N canvas 5 27 1440 785 12;
#X obj 116 127 +~ 2;
#X obj 111 93 osc~ 0.2;
#X obj 62 209 osc~;
#X obj 113 157 *~ 50;
#X obj 547 75 +~ 2;
#X obj 542 41 osc~ 0.2;
#X obj 413 149 osc~;
#X obj 880 123 +~ 2;
#X obj 875 89 osc~ 0.2;
#X obj 746 197 osc~;
#X obj 544 105 *~ 100;
#X obj 980 362 +~ 2;
#X obj 846 436 cos~;
#X obj 975 328 osc~ 0.5;
#X obj 1180 108 +~ 2;
#X obj 1175 74 osc~ 0.5;
#X obj 1078 288 *~;
#X obj 1177 138 *~ 5;
#X obj 877 153 *~ 200;
#X obj 977 392 *~ 400;
#X obj 856 631 metro 500;
#X msg 682 580 60;
#X obj 679 633 makenote 64 250;
#X msg 771 580 70;
#X obj 679 686 noteout 1;
#X obj 228 147 loadbang;
#X msg 228 191 0.5;
#X obj 65 281 *~ 0.5;
#X obj 196 551 *~ 0.5;
#X obj 125 592 dac~;
#X obj 370 255 *~ 0.5;
#X obj 703 303 *~ 0.3;
#X obj 761 473 *~ 0.3;
#X msg 727 580 64;
#X connect 0 0 3 0;
#X connect 1 0 0 0;
#X connect 2 0 27 0;
#X connect 3 0 2 0;
#X connect 4 0 10 0;
#X connect 5 0 4 0;
#X connect 6 0 30 0;
#X connect 7 0 18 0;
#X connect 8 0 7 0;
#X connect 9 0 31 0;
#X connect 10 0 6 0;
#X connect 11 0 19 0;
#X connect 12 0 32 0;
#X connect 13 0 11 0;
#X connect 14 0 17 0;
#X connect 15 0 14 0;
#X connect 16 0 13 0;
#X connect 17 0 16 1;
#X connect 18 0 9 0;
#X connect 19 0 12 0;
#X connect 21 0 22 0;
#X connect 27 0 28 0;
#X connect 28 0 29 0;
#X connect 28 0 29 1;
#X connect 30 0 28 0;
#X connect 31 0 28 0;
#X connect 32 0 28 0;
#X connect 33 0 22 0;
