#N canvas -8 -8 1538 778 10;
#X declare -lib gem;
#X obj 170 110 declare -lib gem;
#X msg 270 60 create \, 1;
#X obj 330 105 gemwin;
#X msg 380 40 0 \, destroy;
#X obj 560 420 rotateXYZ, f 14;
#X floatatom 566 384 5 0 0 0 - - -, f 5;
#X floatatom 603 385 5 0 0 0 - - -, f 5;
#X floatatom 637 386 5 0 0 0 - - -, f 5;
#X obj 710 237 dac~;
#X obj 800 161 hsl 128 15 0 1 0 0 empty empty empty -2 -8 0 10 #fcfcfc
#000000 #000000 5000 1;
#X obj 713 198 *~;
#X floatatom 712 105 5 0 0 0 - - -, f 5;
#X obj 767 92 +~ 2;
#X obj 762 58 osc~ 0.2;
#X obj 713 174 osc~;
#X obj 764 122 *~ 50;
#X obj 675 -19 vsl 15 128 0 1 0 0 empty empty empty 0 -9 0 10 #fcfcfc
#000000 #000000 8200 1;
#X floatatom 991 1 5 0 0 0 - - -, f 5;
#X obj 1045 2 +~ 2;
#X obj 1040 -32 osc~ 0.2;
#X obj 991 36 osc~;
#X obj 1199 -117 vsl 15 128 0 1 0 0 empty empty empty 0 -9 0 10 #fcfcfc
#000000 #000000 9700 1;
#X obj 1042 32 *~ 80;
#X obj 1035 105 hsl 128 15 0 1 0 0 empty empty empty -2 -8 0 10 #fcfcfc
#000000 #000000 6200 1;
#X obj 948 142 *~;
#X obj 820 320 snapshot~;
#X floatatom 820 345 5 0 0 0 - - -, f 5;
#X obj 820 290 metro 50;
#X obj 820 240 tgl 15 0 empty empty empty 17 7 0 10 #fcfcfc #000000
#000000 1 1;
#X obj 350 600 circle;
#X obj 820 369 * 10;
#X obj 346 262 part_head;
#X obj 346 287 part_size 3;
#X obj 346 312 part_source 50;
#X obj 346 337 part_killold 10;
#X obj 346 359 part_render;
#X obj 346 237 gemhead;
#X obj 281 555 loadbang;
#X msg 281 580 draw line;
#X msg 418 229 speed 5;
#X connect 1 0 2 0;
#X connect 3 0 2 0;
#X connect 5 0 4 1;
#X connect 6 0 4 2;
#X connect 7 0 4 3;
#X connect 9 0 10 1;
#X connect 10 0 8 0;
#X connect 10 0 8 1;
#X connect 10 0 25 0;
#X connect 11 0 14 0;
#X connect 12 0 15 0;
#X connect 13 0 12 0;
#X connect 14 0 10 0;
#X connect 15 0 14 0;
#X connect 16 0 13 0;
#X connect 17 0 20 0;
#X connect 18 0 22 0;
#X connect 19 0 18 0;
#X connect 20 0 24 0;
#X connect 21 0 19 0;
#X connect 22 0 20 0;
#X connect 23 0 24 1;
#X connect 24 0 8 0;
#X connect 24 0 8 1;
#X connect 24 0 25 0;
#X connect 25 0 26 0;
#X connect 26 0 30 0;
#X connect 27 0 25 0;
#X connect 28 0 27 0;
#X connect 31 0 32 0;
#X connect 32 0 33 0;
#X connect 33 0 34 0;
#X connect 34 0 35 0;
#X connect 35 0 29 0;
#X connect 36 0 31 0;
#X connect 37 0 38 0;
#X connect 38 0 29 0;
#X connect 39 0 31 0;
